<svg width="34" height="38" viewBox="0 0 34 38" fill="none" xmlns="http://www.w3.org/2000/svg">
<path d="M33.0274 9.61634L33.1195 9.5549C32.9352 9.21694 32.6587 8.90971 32.3822 8.75609L17.5429 0.215062C17.2971 0.0614463 16.9592 0 16.5905 0C16.2218 0 15.8839 0.0921694 15.6381 0.215062L0.890971 8.78682C0.368678 9.09405 0 9.86213 0 10.4459V27.5587C0 27.8966 0.0614462 28.2653 0.276508 28.6032L0.215062 28.634C0.368678 28.8798 0.58374 29.0948 0.798802 29.2177L15.6074 37.7895C15.8531 37.9431 16.1911 38.0045 16.5598 38.0045C16.9285 38.0045 17.2664 37.9124 17.5122 37.7895L32.2593 29.2177C32.7816 28.9105 33.1503 28.1424 33.1503 27.5587V10.4151C33.181 10.1694 33.1503 9.89285 33.0274 9.61634ZM16.5905 26.5141C19.3863 26.5141 21.8442 24.9779 23.1345 22.7044L27.0978 25.0394C25.0086 28.6647 21.0761 31.1225 16.5905 31.1225C9.89285 31.1225 4.45486 25.6845 4.45486 18.9869C4.45486 12.2893 9.89285 6.85126 16.5905 6.85126C21.1068 6.85126 25.0394 9.33983 27.1285 12.9959L23.1345 15.3001C21.8442 12.9959 19.3863 11.4597 16.5905 11.4597C12.4429 11.4597 9.06333 14.8393 9.06333 18.9869C9.06333 23.1345 12.4429 26.5141 16.5905 26.5141Z" fill="#F0EDE6"/>
</svg>
