<svg width="34" height="38" viewBox="0 0 34 38" fill="none" xmlns="http://www.w3.org/2000/svg">
<path d="M26.7531 18.1824L26.489 19.5449H25.09L25.3541 18.1824H26.7531Z" fill="#F0EDE6"/>
<path fill-rule="evenodd" clip-rule="evenodd" d="M16.5903 0C16.959 0 17.2974 0.0613818 17.5432 0.214997L32.3822 8.75593C32.6587 8.90954 32.9352 9.21692 33.1195 9.55486L33.0272 9.61644C33.1501 9.89295 33.181 10.1696 33.1503 10.4154V27.5588C33.1503 28.1425 32.7817 28.9105 32.2595 29.2177L17.5124 37.7895C17.2667 37.9123 16.9286 38.0044 16.56 38.0045C16.1913 38.0045 15.8529 37.9431 15.6071 37.7895L0.798935 29.2177C0.583873 29.0948 0.368613 28.8796 0.214998 28.6338L0.276574 28.603C0.0616152 28.2651 1.92688e-05 27.8967 0 27.5588V10.4456C9.4815e-05 9.86197 0.368605 9.09395 0.890779 8.78672L15.6379 0.214997C15.8837 0.0921276 16.2217 3.39661e-05 16.5903 0ZM16.5903 6.85122C9.89274 6.85133 4.45494 12.2895 4.45494 18.9871C4.45504 25.6846 9.89281 31.1223 16.5903 31.1225C21.0759 31.1225 25.0089 28.6647 27.098 25.0394L23.1347 22.7042C21.8443 24.9777 19.3861 26.5141 16.5903 26.5141C12.4428 26.514 9.0634 23.1346 9.06329 18.9871C9.06329 14.8395 12.4428 11.4597 16.5903 11.4596C19.3861 11.4596 21.8443 12.9961 23.1347 15.3003L27.1283 12.9959C25.0391 9.33988 21.1065 6.85122 16.5903 6.85122ZM25.0044 15.962L24.7258 17.395H23.477V18.1824H24.576L24.3119 19.5449H23.0559V20.3324H24.1622L23.8767 21.7894H24.6548L24.9402 20.3324H26.3388L26.0533 21.7894H26.8314L27.1168 20.3324H28.209V19.5449H27.2666L27.5306 18.1824H28.6302V17.395H27.6809L27.9591 15.962H27.181L26.9029 17.395H25.5038L25.7825 15.962H25.0044Z" fill="#F0EDE6"/>
</svg>
