<svg width="27" height="38" viewBox="0 0 27 38" fill="none" xmlns="http://www.w3.org/2000/svg">
<path fill-rule="evenodd" clip-rule="evenodd" d="M14.4783 24.6542C15.732 25.6598 17.2848 26.2195 18.8917 26.2449C20.4987 26.2704 22.0685 25.7603 23.3534 24.7949C24.6384 23.8296 25.5655 22.464 25.9885 20.9135C26.4115 19.363 26.3064 17.7158 25.6897 16.2316C25.174 14.9852 24.3203 13.9077 23.2248 13.1207C24.1593 12.4509 24.9206 11.5679 25.4456 10.545C25.9705 9.52208 26.2441 8.38875 26.2434 7.239C26.2434 5.31909 25.4808 3.47783 24.1232 2.12025C22.7656 0.762678 20.9244 3.02209e-07 19.0045 3.02209e-07H7.24109C5.7085 -0.000442411 4.21532 0.485532 2.97658 1.38794C1.73784 2.29034 0.817464 3.56261 0.347997 5.02152C-0.121469 6.48043 -0.1158 8.05069 0.364189 9.50617C0.844178 10.9617 1.77372 12.2272 3.01894 13.1207C2.08484 13.7909 1.32379 14.6739 0.79881 15.6968C0.273826 16.7196 1.90472e-07 17.8527 1.90472e-07 19.0024C1.90472e-07 20.152 0.273826 21.2852 0.79881 22.308C1.32379 23.3308 2.08484 24.2138 3.01894 24.884C2.01116 25.6072 1.2061 26.5772 0.680983 27.7009C0.155867 28.8247 -0.0716871 30.0645 0.0201493 31.3015C0.111986 32.5385 0.520131 33.7311 1.20544 34.765C1.89074 35.7989 2.83021 36.6394 3.93373 37.2058C5.03725 37.7722 6.2678 38.0455 7.50734 37.9996C8.74688 37.9536 9.95383 37.59 11.0124 36.9434C12.071 36.2969 12.9457 35.3892 13.5526 34.3075C14.1595 33.2257 14.4782 32.0061 14.4783 30.7657V24.6542ZM7.23928 2.71462C6.03934 2.71462 4.88855 3.1913 4.04006 4.03978C3.19158 4.88827 2.7149 6.03906 2.7149 7.239C2.7149 8.43893 3.19158 9.58973 4.04006 10.4382C4.88855 11.2867 6.03934 11.7634 7.23928 11.7634H11.7636V2.71462H7.23928ZM11.7636 26.2414H7.23928C6.34444 26.2414 5.4697 26.5067 4.72567 27.0039C3.98164 27.501 3.40174 28.2076 3.0593 29.0343C2.71686 29.8611 2.62727 30.7708 2.80184 31.6484C2.97641 32.526 3.40732 33.3322 4.04006 33.9649C4.67281 34.5977 5.47897 35.0286 6.35661 35.2032C7.23426 35.3777 8.14396 35.2881 8.97068 34.9457C9.7974 34.6033 10.504 34.0234 11.0012 33.2793C11.4983 32.5353 11.7636 31.6606 11.7636 30.7657V26.2414ZM7.23928 14.478C6.03934 14.478 4.88855 14.9547 4.04006 15.8032C3.19158 16.6516 2.7149 17.8024 2.7149 19.0024C2.7149 20.2023 3.19158 21.3531 4.04006 22.2016C4.88855 23.0501 6.03934 23.5267 7.23928 23.5267H11.7636V14.478H7.23928ZM14.4783 19.0024C14.4783 20.2025 14.955 21.3536 15.8037 22.2022C16.6524 23.0509 17.8034 23.5276 19.0035 23.5276C20.2037 23.5276 21.3548 23.0509 22.2034 22.2022C23.0521 21.3536 23.5288 20.2025 23.5288 19.0024C23.5288 17.8022 23.0521 16.6512 22.2034 15.8025C21.3548 14.9539 20.2037 14.4771 19.0035 14.4771C17.8034 14.4771 16.6524 14.9539 15.8037 15.8025C14.955 16.6512 14.4783 17.8022 14.4783 19.0024ZM19.0026 11.7634C20.2026 11.7634 21.3534 11.2867 22.2019 10.4382C23.0503 9.58973 23.527 8.43893 23.527 7.239C23.527 6.03906 23.0503 4.88827 22.2019 4.03978C21.3534 3.1913 20.2026 2.71462 19.0026 2.71462H14.4783V11.7634H19.0026Z" fill="#F0EDE6"/>
</svg>
