<svg width="38" height="38" viewBox="0 0 38 38" fill="none" xmlns="http://www.w3.org/2000/svg">
<path fill-rule="evenodd" clip-rule="evenodd" d="M38.0045 0H0V38.0045H38.0045V0ZM20.2691 20.2691C20.2691 18.9252 20.803 17.6363 21.7533 16.686C22.7035 15.7357 23.9924 15.2018 25.3364 15.2018H28.2931C30.8571 15.2018 32.9373 17.2794 32.9373 19.846V20.2691H30.4036V19.846C30.4036 19.5688 30.349 19.2944 30.243 19.0383C30.1369 18.7822 29.9814 18.5496 29.7855 18.3536C29.5895 18.1576 29.3568 18.0022 29.1008 17.8961C28.8447 17.79 28.5703 17.7354 28.2931 17.7354H25.3364C24.6644 17.7354 24.02 18.0024 23.5448 18.4775C23.0697 18.9527 22.8027 19.5971 22.8027 20.2691C22.8027 20.941 23.0697 21.5855 23.5448 22.0606C24.02 22.5358 24.6644 22.8027 25.3364 22.8027H27.87C29.2139 22.8027 30.5028 23.3366 31.4531 24.2869C32.4034 25.2372 32.9373 26.5261 32.9373 27.87C32.9373 29.2139 32.4034 30.5028 31.4531 31.4531C30.5028 32.4034 29.2139 32.9373 27.87 32.9373H25.3364C23.9924 32.9373 22.7035 32.4034 21.7533 31.4531C20.803 30.5028 20.2691 29.2139 20.2691 27.87H22.8027C22.8027 28.5419 23.0697 29.1864 23.5448 29.6615C24.02 30.1367 24.6644 30.4036 25.3364 30.4036H27.87C28.5419 30.4036 29.1864 30.1367 29.6615 29.6615C30.1367 29.1864 30.4036 28.5419 30.4036 27.87C30.4036 27.198 30.1367 26.5536 29.6615 26.0784C29.1864 25.6033 28.5419 25.3364 27.87 25.3364H25.3364C23.9924 25.3364 22.7035 24.8025 21.7533 23.8522C20.803 22.9019 20.2691 21.613 20.2691 20.2691ZM15.2018 15.2018V27.87C15.2018 28.5419 14.9349 29.1864 14.4597 29.6615C13.9846 30.1367 13.3401 30.4036 12.6682 30.4036C11.9962 30.4036 11.3518 30.1367 10.8766 29.6615C10.4015 29.1864 10.1345 28.5419 10.1345 27.87H7.60091C7.60091 29.2139 8.13478 30.5028 9.08507 31.4531C10.0354 32.4034 11.3243 32.9373 12.6682 32.9373C14.0121 32.9373 15.301 32.4034 16.2513 31.4531C17.2016 30.5028 17.7354 29.2139 17.7354 27.87V15.2018H15.2018Z" fill="#F0EDE6"/>
</svg>
