<svg width="56" height="38" viewBox="0 0 56 38" fill="none" xmlns="http://www.w3.org/2000/svg">
<path d="M38.2565 3.84765C37.9884 3.84765 37.8065 3.8803 37.6176 3.9246V3.95492H37.6502C37.7761 4.19745 37.9907 4.37468 38.1493 4.59156C38.2752 4.84108 38.3825 5.09061 38.5084 5.3378L38.541 5.30282C38.7603 5.14891 38.8675 4.90171 38.8675 4.52626C38.7742 4.41666 38.7603 4.30705 38.681 4.19978C38.5877 4.04354 38.3871 3.96658 38.2612 3.84299L38.2565 3.84765ZM13.4557 34.6161H11.2939C11.2327 31.1806 11.0226 27.7493 10.6643 24.332H10.6456L7.35748 34.6161H5.71341L2.4486 24.332H2.42528C2.17007 27.7547 2.01842 31.1843 1.97054 34.6161H0C0.129038 30.0298 0.447745 25.7312 0.956122 21.7201H3.63793L6.75115 31.1974H6.76981L9.91102 21.7201H12.4646C13.0289 26.4215 13.3616 30.7201 13.4627 34.6161H13.4557ZM22.8233 25.1015C21.9418 29.8728 20.782 33.3397 19.344 35.5023C18.22 37.172 16.9894 38.0061 15.6524 38.0045C15.298 38.0045 14.858 37.8973 14.3325 37.6827V36.5307C14.5906 36.5711 14.8906 36.5913 15.2327 36.5913C15.8576 36.5913 16.3606 36.4188 16.7415 36.0736C17.2001 35.6539 17.4294 35.1836 17.4294 34.6628C17.4294 34.3005 17.2506 33.5667 16.893 32.4613L14.5284 25.1015H16.6505L18.3459 30.6051C18.7299 31.855 18.8892 32.728 18.8239 33.2239C19.7567 30.7395 20.4058 28.0321 20.7712 25.1015H22.8233ZM51.5653 34.6161H45.4321V21.7201H47.4959V33.0304H51.5653V34.6161ZM43.823 34.9309L41.4537 33.7649C41.6651 33.5893 41.8634 33.3949 42.0484 33.1819C43.0574 32.0004 43.5611 30.2491 43.5595 27.9279C43.5595 23.6604 41.8844 21.5258 38.534 21.5242C36.8923 21.5242 35.6097 22.066 34.6862 23.1497C33.6819 24.3343 33.1798 26.0794 33.1798 28.385C33.1782 30.6533 33.6244 32.3168 34.5183 33.3755C35.333 34.3316 36.5635 34.8097 38.2099 34.8097C38.8255 34.8097 39.3891 34.7335 39.9006 34.5811L42.9905 36.3814L43.83 34.9309H43.823ZM36.1461 32.0346C35.6222 31.1935 35.3602 29.8441 35.3602 27.9862C35.3602 24.737 36.3474 23.1123 38.3218 23.1123C39.3572 23.1123 40.1167 23.501 40.6002 24.2783C41.1226 25.1225 41.3838 26.4619 41.3838 28.2964C41.3838 31.5721 40.3965 33.2107 38.4221 33.2123C37.3851 33.2123 36.6249 32.8236 36.1414 32.0463L36.1461 32.0346ZM32.2796 31.0435C32.2796 32.1411 31.8785 33.0397 31.0763 33.7393C30.2772 34.4389 29.2014 34.7887 27.8488 34.7887C26.5825 34.7887 25.3675 34.3876 24.1806 33.5877L24.7332 32.4777C25.7531 32.9892 26.6781 33.2441 27.5083 33.2426C28.2826 33.2426 28.8912 33.0716 29.3343 32.7295C29.5563 32.5631 29.7355 32.3462 29.8572 32.0969C29.9788 31.8475 30.0394 31.5728 30.0339 31.2953C30.0339 30.5258 29.4975 29.8728 28.5228 29.3248C27.6179 28.8281 25.8106 27.7927 25.8106 27.7927C24.8265 27.0767 24.3368 26.3095 24.3368 25.0479C24.3368 24.0001 24.7021 23.1566 25.4328 22.5177C26.1651 21.8709 27.1134 21.5483 28.2779 21.5499C29.4734 21.5499 30.5617 21.8686 31.5427 22.506L31.046 23.6161C30.2639 23.2707 29.4196 23.0882 28.5647 23.0797C27.904 23.0797 27.3956 23.2398 27.0396 23.5601C26.8603 23.7096 26.7157 23.8964 26.6159 24.1074C26.516 24.3184 26.4632 24.5486 26.4613 24.7821C26.4613 25.547 27.0069 26.2046 28.0144 26.7643C28.9309 27.2656 30.7825 28.3267 30.7825 28.3267C31.7922 29.038 32.2936 29.7959 32.2936 31.0505L32.2796 31.0435ZM54.1585 17.3966C52.9109 17.3639 51.9431 17.4899 51.1339 17.835C50.9007 17.9283 50.5275 17.9283 50.4949 18.2245C50.6232 18.3481 50.6418 18.5509 50.7514 18.7235C50.938 19.036 51.2598 19.4534 51.5583 19.6726C51.8817 19.9323 52.2136 20.1732 52.5541 20.3956C53.1604 20.7687 53.8483 20.9902 54.443 21.3657C54.7811 21.5849 55.1263 21.8624 55.4691 22.0956C55.6393 22.2122 55.7489 22.4221 55.9681 22.4967V22.45C55.8608 22.3101 55.8282 22.1072 55.7233 21.951C55.567 21.7948 55.4108 21.6548 55.2569 21.5009C54.7996 20.897 54.2531 20.3662 53.6361 19.9268C53.1371 19.5863 52.0457 19.1106 51.8405 18.5393L51.8101 18.5066C52.1506 18.4763 52.5564 18.3527 52.8829 18.2594C53.4122 18.1195 53.8973 18.1498 54.4453 18.0122C54.6941 17.9469 54.9428 17.8739 55.1916 17.793V17.6531C54.9117 17.3733 54.7018 16.9932 54.4127 16.732C53.6048 16.0274 52.7441 15.3858 51.8381 14.8127C51.3484 14.5002 50.7281 14.2997 50.2127 14.0338C50.0262 13.9406 49.7137 13.8939 49.6064 13.7377C49.3266 13.3972 49.1633 12.9448 48.9651 12.539C48.5078 11.6505 48.0823 10.7458 47.6895 9.82691C47.4097 9.21592 47.2394 8.60727 46.8966 8.04759C45.2875 5.3961 43.5455 3.78935 40.8661 2.21758C40.29 1.8911 39.5998 1.75118 38.8699 1.57861C38.4804 1.55995 38.091 1.53197 37.7039 1.51564C37.4473 1.40604 37.2001 1.10987 36.9809 0.967623C36.0948 0.407942 33.8001 -0.804701 33.1471 0.799718C32.7274 1.81181 33.7698 2.80991 34.1312 3.32295C34.3994 3.67974 34.7375 4.08785 34.9241 4.48895C35.0337 4.75946 35.064 5.03697 35.1736 5.31914C35.4208 6.00475 35.6564 6.76965 35.9828 7.41095C36.1531 7.73743 36.3396 8.08024 36.5588 8.37407C36.6848 8.54431 36.8993 8.6236 36.9483 8.90344C36.7291 9.22059 36.7151 9.68232 36.5892 10.0694C36.0295 11.8348 36.2487 14.0175 37.0416 15.3164C37.2911 15.7036 37.8857 16.5617 38.681 16.2329C39.3806 15.9531 39.2267 15.0669 39.4272 14.2857C39.4738 14.0991 39.4435 13.9755 39.5391 13.8496V13.8846C39.7583 14.323 39.9776 14.7404 40.1781 15.1789C40.6585 15.9438 41.498 16.7366 42.2 17.266C42.5731 17.5458 42.8692 18.0309 43.3356 18.2035V18.1568H43.3007C43.2004 18.0216 43.0675 17.9563 42.9415 17.8467C42.6462 17.5569 42.3734 17.245 42.1253 16.9139C41.4703 16.0147 40.8878 15.065 40.3833 14.0735C40.1268 13.5838 39.9123 13.0567 39.707 12.574C39.6138 12.3875 39.6138 12.1076 39.4575 12.0143C39.2243 12.3548 38.8815 12.651 38.7113 13.0707C38.4151 13.7423 38.3848 14.5679 38.2729 15.4261C38.2099 15.4424 38.2402 15.4261 38.2099 15.4587C37.7108 15.3374 37.5406 14.8197 37.3541 14.386C36.8877 13.2783 36.8107 11.499 37.2141 10.2233C37.3237 9.89687 37.7901 8.86612 37.6036 8.55364C37.5056 8.25747 37.1978 8.08723 37.0276 7.84704C36.8089 7.53424 36.6214 7.20071 36.4679 6.85127C36.0948 5.9791 35.9082 5.01365 35.5024 4.14148C35.3159 3.73804 34.9894 3.31595 34.7236 2.94516C34.4274 2.5254 34.1009 2.22924 33.8654 1.73252C33.7884 1.56228 33.6788 1.28011 33.8024 1.09355C33.8351 0.967624 33.9004 0.918651 34.0216 0.883671C34.2268 0.715767 34.8028 0.934975 35.0057 1.02825C35.5817 1.26146 36.0668 1.48066 36.5495 1.80714C36.7687 1.96106 37.0043 2.25722 37.2841 2.33418H37.6106C38.1096 2.44378 38.6716 2.36683 39.138 2.50441C39.9659 2.77026 40.7121 3.15738 41.3814 3.57714C43.4439 4.89426 45.1214 6.73343 46.2437 8.9081C46.4302 9.26723 46.5118 9.59604 46.6821 9.96916C47.0086 10.7387 47.412 11.5153 47.7431 12.2592C48.0696 12.9938 48.3844 13.7423 48.8532 14.351C49.0864 14.6775 50.0238 14.8477 50.4436 15.018C50.7538 15.1579 51.2365 15.2861 51.5163 15.4564C52.0527 15.7828 52.575 16.156 53.0788 16.5151C53.3353 16.6923 54.1118 17.0818 54.1585 17.3966Z" fill="#F0EDE6"/>
</svg>
