<svg width="43" height="38" viewBox="0 0 43 38" fill="none" xmlns="http://www.w3.org/2000/svg">
<path d="M26.224 27.5394C25.1464 29.0718 23.9721 30.5337 22.7083 31.9165C26.0751 35.1827 29.2045 36.7121 30.9412 35.7079C32.6779 34.7057 32.9174 31.2303 31.7723 26.6842C30.0557 27.0665 28.1922 27.3583 26.224 27.5394ZM23.5878 27.7125C22.0623 27.7757 20.5349 27.7757 19.0095 27.7125C19.7661 28.7026 20.5349 29.6203 21.2976 30.4555C22.0623 29.6203 22.8291 28.7047 23.5878 27.7125ZM33.7304 11.8243C39.0936 13.3618 42.5972 15.9176 42.5972 19.0027C42.5972 22.0878 39.0956 24.6436 33.7324 26.1811C35.0808 31.5945 34.6179 35.9051 31.9474 37.4467C29.2769 38.9902 25.3124 37.2354 21.2976 33.3594C17.2848 37.2334 13.3203 38.9902 10.6498 37.4467C7.97729 35.9051 7.51644 31.5945 8.86478 26.1811C3.50164 24.6436 0 22.0878 0 19.0027C0 15.9176 3.50164 13.3618 8.86478 11.8243C7.51644 6.41089 7.97931 2.10025 10.6498 0.556714C13.3203 -0.984812 17.2848 0.770032 21.2976 4.64598C25.3124 0.770032 29.2769 -0.984812 31.9474 0.556714C34.6179 2.10025 35.0808 6.41089 33.7324 11.8243M31.7743 11.3253C32.9214 6.77715 32.6799 3.30369 30.9432 2.29948C29.2065 1.29729 26.0771 2.82674 22.7123 6.09292C23.9753 7.47591 25.1489 8.93788 26.2261 10.47C28.1942 10.6511 30.0577 10.9409 31.7743 11.3253ZM10.8249 26.6801C9.67981 31.2282 9.91929 34.7017 11.658 35.7039C13.3948 36.7061 16.5241 35.1787 19.8889 31.9125C18.6256 30.5291 17.452 29.0664 16.3752 27.5334C14.5094 27.3666 12.6563 27.0809 10.8269 26.6781M19.0135 10.2929C20.5389 10.2297 22.0663 10.2297 23.5918 10.2929C22.8668 9.34794 22.1014 8.43479 21.2976 7.55596C20.5329 8.39314 19.7682 9.31081 19.0095 10.3009M16.3732 10.476C17.4501 8.9437 18.6237 7.48171 19.8869 6.09896C16.5221 2.83077 13.3928 1.30131 11.658 2.30351C9.92131 3.30771 9.67981 6.78319 10.8269 11.3293C12.5435 10.9469 14.407 10.6571 16.3752 10.474M25.1092 25.6075C26.5423 23.5053 27.8164 21.2989 28.9207 19.0067C27.8171 16.7146 26.5437 14.5082 25.1112 12.4059C22.5744 12.2161 20.0269 12.2161 17.4901 12.4059C16.0562 14.5081 14.7814 16.7145 13.6765 19.0067C14.7809 21.2988 16.055 23.5052 17.4881 25.6075C20.0249 25.7972 22.5723 25.7972 25.1092 25.6075ZM27.6951 25.3419C28.9328 25.1809 30.1101 24.9756 31.2169 24.7321C30.855 23.5966 30.4441 22.4773 29.9853 21.3774C29.2775 22.7298 28.5141 24.0524 27.6971 25.3419M14.9041 12.6696C13.6664 12.8306 12.4892 13.0378 11.3823 13.2813C11.7244 14.36 12.137 15.4829 12.616 16.6361C13.3237 15.2836 14.0871 13.961 14.9041 12.6716M11.3823 24.7341C12.4892 24.9776 13.6664 25.1829 14.9041 25.3439C14.0871 24.0545 13.3237 22.7318 12.616 21.3794C12.1565 22.4793 11.7449 23.5986 11.3823 24.7341ZM9.41417 24.2411C9.94143 22.5627 10.6216 20.8038 11.4467 19.0087C10.6586 17.3096 9.97972 15.562 9.41417 13.7764C4.9043 15.0563 2.01445 17.0044 2.01445 19.0087C2.01445 21.0131 4.9043 22.9591 9.41417 24.2411ZM31.2189 13.2813C30.0544 13.0266 28.8794 12.8225 27.6971 12.6696C28.5141 13.959 29.2775 15.2816 29.9853 16.6341C30.4642 15.4829 30.8748 14.36 31.2189 13.2813ZM33.1851 13.7744C32.6618 15.4528 31.9776 17.2116 31.1525 19.0067C31.9776 20.8018 32.6618 22.5607 33.1851 24.2391C37.6969 22.9571 40.5868 21.0111 40.5868 19.0067C40.5868 17.0023 37.6969 15.0563 33.1851 13.7744ZM21.2976 22.7881C20.7906 22.8046 20.2855 22.7191 19.8123 22.5365C19.3391 22.3539 18.9074 22.078 18.5429 21.7252C18.1785 21.3725 17.8887 20.95 17.6908 20.483C17.4928 20.016 17.3908 19.5139 17.3908 19.0067C17.3908 18.4995 17.4928 17.9974 17.6908 17.5304C17.8887 17.0634 18.1785 16.641 18.5429 16.2882C18.9074 15.9354 19.3391 15.6596 19.8123 15.477C20.2855 15.2944 20.7906 15.2088 21.2976 15.2254C22.2791 15.2574 23.2097 15.6698 23.8927 16.3755C24.5757 17.0811 24.9576 18.0247 24.9576 19.0067C24.9576 19.9888 24.5757 20.9323 23.8927 21.638C23.2097 22.3436 22.2791 22.7561 21.2976 22.7881Z" fill="#F0EDE6"/>
</svg>
