<svg width="43" height="41" viewBox="0 0 43 41" fill="none" xmlns="http://www.w3.org/2000/svg">
<g opacity="0.2" filter="url(#filter0_f_1057_901)">
<path d="M21.4763 8C19.7941 8 18.1283 8.33135 16.574 8.97513C15.0198 9.61891 13.6076 10.5625 12.4181 11.7521C10.0157 14.1545 8.66602 17.4128 8.66602 20.8103C8.66602 26.4725 12.3426 31.2764 17.4283 32.9802C18.0688 33.0826 18.2738 32.6855 18.2738 32.3396V30.1747C14.7253 30.9433 13.9695 28.4581 13.9695 28.4581C13.3802 26.9721 12.5475 26.575 12.5475 26.575C11.3818 25.7807 12.6372 25.8064 12.6372 25.8064C13.9182 25.896 14.5972 27.1258 14.5972 27.1258C15.7117 29.073 17.5948 28.4965 18.325 28.1891C18.4403 27.3564 18.7734 26.7928 19.1321 26.4725C16.2882 26.1522 13.3034 25.0506 13.3034 20.1698C13.3034 18.7479 13.7901 17.6078 14.6228 16.6982C14.4947 16.378 14.0464 15.0457 14.7509 13.3163C14.7509 13.3163 15.827 12.9704 18.2738 14.6229C19.2858 14.3411 20.3875 14.2002 21.4763 14.2002C22.5652 14.2002 23.6669 14.3411 24.6789 14.6229C27.1257 12.9704 28.2018 13.3163 28.2018 13.3163C28.9063 15.0457 28.458 16.378 28.3299 16.6982C29.1625 17.6078 29.6493 18.7479 29.6493 20.1698C29.6493 25.0634 26.6517 26.1394 23.795 26.4597C24.2562 26.8568 24.6789 27.6382 24.6789 28.8296V32.3396C24.6789 32.6855 24.8839 33.0955 25.5372 32.9802C30.6229 31.2636 34.2867 26.4725 34.2867 20.8103C34.2867 19.1281 33.9553 17.4623 33.3115 15.908C32.6678 14.3538 31.7242 12.9416 30.5346 11.7521C29.3451 10.5625 27.9329 9.61891 26.3786 8.97513C24.8244 8.33135 23.1586 8 21.4763 8Z" fill="#066FD5"/>
</g>
<path d="M21.4763 8C19.7941 8 18.1283 8.33135 16.574 8.97513C15.0198 9.61891 13.6076 10.5625 12.4181 11.7521C10.0157 14.1545 8.66602 17.4128 8.66602 20.8103C8.66602 26.4725 12.3426 31.2764 17.4283 32.9802C18.0688 33.0826 18.2738 32.6855 18.2738 32.3396V30.1747C14.7253 30.9433 13.9695 28.4581 13.9695 28.4581C13.3802 26.9721 12.5475 26.575 12.5475 26.575C11.3818 25.7807 12.6372 25.8064 12.6372 25.8064C13.9182 25.896 14.5972 27.1258 14.5972 27.1258C15.7117 29.073 17.5948 28.4965 18.325 28.1891C18.4403 27.3564 18.7734 26.7928 19.1321 26.4725C16.2882 26.1522 13.3034 25.0506 13.3034 20.1698C13.3034 18.7479 13.7901 17.6078 14.6228 16.6982C14.4947 16.378 14.0464 15.0457 14.7509 13.3163C14.7509 13.3163 15.827 12.9704 18.2738 14.6229C19.2858 14.3411 20.3875 14.2002 21.4763 14.2002C22.5652 14.2002 23.6669 14.3411 24.6789 14.6229C27.1257 12.9704 28.2018 13.3163 28.2018 13.3163C28.9063 15.0457 28.458 16.378 28.3299 16.6982C29.1625 17.6078 29.6493 18.7479 29.6493 20.1698C29.6493 25.0634 26.6517 26.1394 23.795 26.4597C24.2562 26.8568 24.6789 27.6382 24.6789 28.8296V32.3396C24.6789 32.6855 24.8839 33.0955 25.5372 32.9802C30.6229 31.2636 34.2867 26.4725 34.2867 20.8103C34.2867 19.1281 33.9553 17.4623 33.3115 15.908C32.6678 14.3538 31.7242 12.9416 30.5346 11.7521C29.3451 10.5625 27.9329 9.61891 26.3786 8.97513C24.8244 8.33135 23.1586 8 21.4763 8Z" fill="#F0EDE6"/>
<defs>
<filter id="filter0_f_1057_901" x="0.666016" y="0" width="41.6211" height="41" filterUnits="userSpaceOnUse" color-interpolation-filters="sRGB">
<feFlood flood-opacity="0" result="BackgroundImageFix"/>
<feBlend mode="normal" in="SourceGraphic" in2="BackgroundImageFix" result="shape"/>
<feGaussianBlur stdDeviation="4" result="effect1_foregroundBlur_1057_901"/>
</filter>
</defs>
</svg>
