<svg width="42" height="42" viewBox="0 0 42 42" fill="none" xmlns="http://www.w3.org/2000/svg">
<g opacity="0.2" filter="url(#filter0_f_1579_5)">
<path d="M15.75 8.5H26.25C30.25 8.5 33.5 11.75 33.5 15.75V26.25C33.5 28.1728 32.7361 30.0169 31.3765 31.3765C30.0169 32.7362 28.1728 33.5 26.25 33.5H15.75C11.75 33.5 8.5 30.25 8.5 26.25V15.75C8.5 13.8272 9.26384 11.9831 10.6235 10.6235C11.9831 9.26384 13.8272 8.5 15.75 8.5ZM15.5 11C14.3065 11 13.1619 11.4741 12.318 12.318C11.4741 13.1619 11 14.3065 11 15.5V26.5C11 28.9875 13.0125 31 15.5 31H26.5C27.6935 31 28.8381 30.5259 29.682 29.682C30.5259 28.8381 31 27.6935 31 26.5V15.5C31 13.0125 28.9875 11 26.5 11H15.5ZM27.5625 12.875C27.9769 12.875 28.3743 13.0396 28.6673 13.3326C28.9604 13.6257 29.125 14.0231 29.125 14.4375C29.125 14.8519 28.9604 15.2493 28.6673 15.5424C28.3743 15.8354 27.9769 16 27.5625 16C27.1481 16 26.7507 15.8354 26.4576 15.5424C26.1646 15.2493 26 14.8519 26 14.4375C26 14.0231 26.1646 13.6257 26.4576 13.3326C26.7507 13.0396 27.1481 12.875 27.5625 12.875ZM21 14.75C22.6576 14.75 24.2473 15.4085 25.4194 16.5806C26.5915 17.7527 27.25 19.3424 27.25 21C27.25 22.6576 26.5915 24.2473 25.4194 25.4194C24.2473 26.5915 22.6576 27.25 21 27.25C19.3424 27.25 17.7527 26.5915 16.5806 25.4194C15.4085 24.2473 14.75 22.6576 14.75 21C14.75 19.3424 15.4085 17.7527 16.5806 16.5806C17.7527 15.4085 19.3424 14.75 21 14.75ZM21 17.25C20.0054 17.25 19.0516 17.6451 18.3483 18.3483C17.6451 19.0516 17.25 20.0054 17.25 21C17.25 21.9946 17.6451 22.9484 18.3483 23.6517C19.0516 24.3549 20.0054 24.75 21 24.75C21.9946 24.75 22.9484 24.3549 23.6516 23.6517C24.3549 22.9484 24.75 21.9946 24.75 21C24.75 20.0054 24.3549 19.0516 23.6516 18.3483C22.9484 17.6451 21.9946 17.25 21 17.25Z" fill="#E900D9"/>
</g>
<path d="M15.75 8.5H26.25C30.25 8.5 33.5 11.75 33.5 15.75V26.25C33.5 28.1728 32.7361 30.0169 31.3765 31.3765C30.0169 32.7362 28.1728 33.5 26.25 33.5H15.75C11.75 33.5 8.5 30.25 8.5 26.25V15.75C8.5 13.8272 9.26384 11.9831 10.6235 10.6235C11.9831 9.26384 13.8272 8.5 15.75 8.5ZM15.5 11C14.3065 11 13.1619 11.4741 12.318 12.318C11.4741 13.1619 11 14.3065 11 15.5V26.5C11 28.9875 13.0125 31 15.5 31H26.5C27.6935 31 28.8381 30.5259 29.682 29.682C30.5259 28.8381 31 27.6935 31 26.5V15.5C31 13.0125 28.9875 11 26.5 11H15.5ZM27.5625 12.875C27.9769 12.875 28.3743 13.0396 28.6673 13.3326C28.9604 13.6257 29.125 14.0231 29.125 14.4375C29.125 14.8519 28.9604 15.2493 28.6673 15.5424C28.3743 15.8354 27.9769 16 27.5625 16C27.1481 16 26.7507 15.8354 26.4576 15.5424C26.1646 15.2493 26 14.8519 26 14.4375C26 14.0231 26.1646 13.6257 26.4576 13.3326C26.7507 13.0396 27.1481 12.875 27.5625 12.875ZM21 14.75C22.6576 14.75 24.2473 15.4085 25.4194 16.5806C26.5915 17.7527 27.25 19.3424 27.25 21C27.25 22.6576 26.5915 24.2473 25.4194 25.4194C24.2473 26.5915 22.6576 27.25 21 27.25C19.3424 27.25 17.7527 26.5915 16.5806 25.4194C15.4085 24.2473 14.75 22.6576 14.75 21C14.75 19.3424 15.4085 17.7527 16.5806 16.5806C17.7527 15.4085 19.3424 14.75 21 14.75ZM21 17.25C20.0054 17.25 19.0516 17.6451 18.3483 18.3483C17.6451 19.0516 17.25 20.0054 17.25 21C17.25 21.9946 17.6451 22.9484 18.3483 23.6517C19.0516 24.3549 20.0054 24.75 21 24.75C21.9946 24.75 22.9484 24.3549 23.6516 23.6517C24.3549 22.9484 24.75 21.9946 24.75 21C24.75 20.0054 24.3549 19.0516 23.6516 18.3483C22.9484 17.6451 21.9946 17.25 21 17.25Z" fill="#F0EDE6"/>
<defs>
<filter id="filter0_f_1579_5" x="0.5" y="0.5" width="41" height="41" filterUnits="userSpaceOnUse" color-interpolation-filters="sRGB">
<feFlood flood-opacity="0" result="BackgroundImageFix"/>
<feBlend mode="normal" in="SourceGraphic" in2="BackgroundImageFix" result="shape"/>
<feGaussianBlur stdDeviation="4" result="effect1_foregroundBlur_1579_5"/>
</filter>
</defs>
</svg>
