<svg width="43" height="41" viewBox="0 0 43 41" fill="none" xmlns="http://www.w3.org/2000/svg">
<g opacity="0.2" filter="url(#filter0_f_1057_891)">
<path fill-rule="evenodd" clip-rule="evenodd" d="M22.1832 15.16V17.9883C22.7755 17.0861 23.5919 16.3532 24.5525 15.8612C25.5131 15.3692 26.5849 15.1351 27.6632 15.1817C33.4215 15.1817 34.6665 18.7817 34.6665 23.465V33H29.3331V24.5467C29.3331 22.53 28.9265 19.9367 25.7865 19.9367C22.7415 19.9367 22.2215 22.1317 22.2215 24.3967V33H16.9049V15.16H22.1832ZM13.3332 10.6767C13.3326 11.205 13.176 11.7214 12.8831 12.1611C12.5901 12.6008 12.1739 12.9442 11.6866 13.1483C11.1995 13.3508 10.6631 13.4038 10.1458 13.3005C9.62851 13.1972 9.15363 12.9423 8.78161 12.5683C8.40889 12.1941 8.15514 11.718 8.05227 11.1999C7.9494 10.6819 8.002 10.145 8.20346 9.65671C8.40493 9.16846 8.74625 8.75068 9.18452 8.4559C9.62278 8.16112 10.1384 8.0025 10.6666 8C11.0176 8 11.3652 8.0693 11.6894 8.20394C12.0136 8.33858 12.308 8.5359 12.5557 8.78458C12.8035 9.03326 12.9997 9.32842 13.1331 9.65311C13.2666 9.9778 13.3346 10.3256 13.3332 10.6767Z" fill="#066FD5"/>
<path d="M13.3333 15.1816H8V33H13.3333V15.1816Z" fill="#066FD5"/>
</g>
<path fill-rule="evenodd" clip-rule="evenodd" d="M22.1832 15.16V17.9883C22.7755 17.0861 23.5919 16.3532 24.5525 15.8612C25.5131 15.3692 26.5849 15.1351 27.6632 15.1817C33.4215 15.1817 34.6665 18.7817 34.6665 23.465V33H29.3331V24.5467C29.3331 22.53 28.9265 19.9367 25.7865 19.9367C22.7415 19.9367 22.2215 22.1317 22.2215 24.3967V33H16.9049V15.16H22.1832ZM13.3332 10.6767C13.3326 11.205 13.176 11.7214 12.8831 12.1611C12.5901 12.6008 12.1739 12.9442 11.6866 13.1483C11.1995 13.3508 10.6631 13.4038 10.1458 13.3005C9.62851 13.1972 9.15363 12.9423 8.78161 12.5683C8.40889 12.1941 8.15514 11.718 8.05227 11.1999C7.9494 10.6819 8.002 10.145 8.20346 9.65671C8.40493 9.16846 8.74625 8.75068 9.18452 8.4559C9.62278 8.16112 10.1384 8.0025 10.6666 8C11.0176 8 11.3652 8.0693 11.6894 8.20394C12.0136 8.33858 12.308 8.5359 12.5557 8.78458C12.8035 9.03326 12.9997 9.32842 13.1331 9.65311C13.2666 9.9778 13.3346 10.3256 13.3332 10.6767Z" fill="#F0EDE6"/>
<path d="M13.3333 15.1816H8V33H13.3333V15.1816Z" fill="#F0EDE6"/>
<defs>
<filter id="filter0_f_1057_891" x="0" y="0" width="42.666" height="41" filterUnits="userSpaceOnUse" color-interpolation-filters="sRGB">
<feFlood flood-opacity="0" result="BackgroundImageFix"/>
<feBlend mode="normal" in="SourceGraphic" in2="BackgroundImageFix" result="shape"/>
<feGaussianBlur stdDeviation="4" result="effect1_foregroundBlur_1057_891"/>
</filter>
</defs>
</svg>
