<svg width="28" height="26" viewBox="0 0 28 26" fill="none" xmlns="http://www.w3.org/2000/svg">
<path d="M6.01281 2.89017C6.01243 3.65631 5.70771 4.39092 5.1657 4.93239C4.62369 5.47386 3.88878 5.77784 3.12264 5.77746C2.3565 5.77707 1.62189 5.47236 1.08042 4.93035C0.538949 4.38833 0.234969 3.65342 0.235352 2.88728C0.235735 2.12115 0.54045 1.38654 1.08246 0.845068C1.62448 0.303597 2.35939 -0.000382708 3.12553 3.61613e-07C3.89166 0.000383431 4.62627 0.305098 5.16774 0.847111C5.70921 1.38912 6.01319 2.12403 6.01281 2.89017ZM6.09947 10.8053C6.09947 9.20989 4.80614 7.91656 3.21074 7.91656C1.61534 7.91656 0.322014 9.20989 0.322014 10.8053V23.1113C0.322014 24.7067 1.61534 26 3.21074 26C4.80614 26 6.09947 24.7067 6.09947 23.1113V10.8053ZM15.2163 8.40062C15.2227 8.13516 15.0092 7.91656 14.7437 7.91656H12.3194C10.7508 7.91656 9.47929 9.1881 9.47929 10.7566V23.1546C9.47929 24.7261 10.7532 26 12.3247 26C13.8962 26 15.1701 24.7261 15.1701 23.1546V16.5105C15.1701 11.2242 22.0597 10.7331 22.0597 16.5105V23.1474C22.0597 24.7228 23.3369 26 24.9123 26C26.4878 26 27.7649 24.7228 27.7649 23.1474V14.5462C27.7649 6.76934 19.9995 6.03197 16.4284 8.87863C16.041 9.18742 15.2045 8.89588 15.2163 8.40062Z" fill="#F0EDE6"/>
</svg>
