<svg width="14" height="20" viewBox="0 0 14 20" fill="none" xmlns="http://www.w3.org/2000/svg">
<path fill-rule="evenodd" clip-rule="evenodd" d="M7.61924 12.9744C8.27901 13.5035 9.09616 13.7981 9.94184 13.8115C10.7875 13.8249 11.6136 13.5564 12.2898 13.0484C12.966 12.5404 13.4539 11.8218 13.6765 11.0058C13.8991 10.1898 13.8438 9.32299 13.5193 8.54195C13.2479 7.88601 12.7986 7.31897 12.2221 6.9048C12.7139 6.5523 13.1145 6.08763 13.3908 5.54932C13.6671 5.01102 13.811 4.4146 13.8107 3.80954C13.8107 2.79919 13.4093 1.83022 12.6949 1.11579C11.9805 0.401362 11.0115 1.59038e-07 10.0012 1.59038e-07H3.81064C3.00412 -0.00023282 2.21833 0.255513 1.56644 0.730406C0.914544 1.2053 0.430193 1.87484 0.183135 2.64259C-0.0639237 3.41035 -0.0609402 4.2367 0.191656 5.00265C0.444251 5.7686 0.933425 6.43462 1.58873 6.9048C1.09715 7.2575 0.69665 7.72221 0.420376 8.26047C0.144102 8.79872 1.00236e-07 9.39504 1.00236e-07 10.0001C1.00236e-07 10.6051 0.144102 11.2014 0.420376 11.7396C0.69665 12.2779 1.09715 12.7426 1.58873 13.0953C1.05838 13.4759 0.634713 13.9863 0.358369 14.5777C0.0820252 15.1691 -0.0377256 15.8215 0.0106037 16.4725C0.0589329 17.1235 0.273721 17.7511 0.634364 18.2952C0.995007 18.8393 1.48941 19.2816 2.07014 19.5796C2.65087 19.8777 3.29845 20.0216 3.95076 19.9974C4.60307 19.9732 5.23823 19.7818 5.79531 19.4416C6.35239 19.1014 6.8127 18.6237 7.13208 18.0544C7.45147 17.4851 7.61922 16.8433 7.61924 16.1906V12.9744ZM3.80969 1.42858C3.17822 1.42858 2.57261 1.67943 2.1261 2.12595C1.67958 2.57247 1.42873 3.17807 1.42873 3.80954C1.42873 4.44102 1.67958 5.04662 2.1261 5.49314C2.57261 5.93966 3.17822 6.19051 3.80969 6.19051H6.19066V1.42858H3.80969ZM6.19066 13.8096H3.80969C3.33878 13.8096 2.87845 13.9492 2.4869 14.2109C2.09535 14.4725 1.79018 14.8443 1.60997 15.2794C1.42976 15.7145 1.38261 16.1932 1.47448 16.6551C1.56635 17.1169 1.79311 17.5412 2.1261 17.8742C2.45908 18.2071 2.88333 18.4339 3.34519 18.5258C3.80705 18.6176 4.28578 18.5705 4.72085 18.3903C5.15591 18.2101 5.52777 17.9049 5.78939 17.5134C6.05102 17.1218 6.19066 16.6615 6.19066 16.1906V13.8096ZM3.80969 7.61909C3.17822 7.61909 2.57261 7.86994 2.1261 8.31646C1.67958 8.76297 1.42873 9.36858 1.42873 10.0001C1.42873 10.6315 1.67958 11.2371 2.1261 11.6836C2.57261 12.1302 3.17822 12.381 3.80969 12.381H6.19066V7.61909H3.80969ZM7.61924 10.0001C7.61924 10.6316 7.87014 11.2374 8.31674 11.684C8.76335 12.1306 9.36908 12.3815 10.0007 12.3815C10.6323 12.3815 11.238 12.1306 11.6846 11.684C12.1312 11.2374 12.3821 10.6316 12.3821 10.0001C12.3821 9.36845 12.1312 8.76273 11.6846 8.31612C11.238 7.86951 10.6323 7.61861 10.0007 7.61861C9.36908 7.61861 8.76335 7.86951 8.31674 8.31612C7.87014 8.76273 7.61924 9.36845 7.61924 10.0001ZM10.0002 6.19051C10.6317 6.19051 11.2373 5.93966 11.6838 5.49314C12.1303 5.04662 12.3812 4.44102 12.3812 3.80954C12.3812 3.17807 12.1303 2.57247 11.6838 2.12595C11.2373 1.67943 10.6317 1.42858 10.0002 1.42858H7.61924V6.19051H10.0002Z" fill="#0ACF83"/>
</svg>
