<svg width="24" height="20" viewBox="0 0 24 20" fill="none" xmlns="http://www.w3.org/2000/svg">
<path d="M14.611 14.4927C14.0439 15.2991 13.426 16.0685 12.7609 16.7962C14.5327 18.515 16.1795 19.3199 17.0934 18.7914C18.0074 18.264 18.1334 16.435 17.5308 14.0426C16.6275 14.2438 15.6468 14.3974 14.611 14.4927ZM13.2237 14.5838C12.4209 14.6171 11.6171 14.6171 10.8143 14.5838C11.2125 15.1049 11.6171 15.5878 12.0185 16.0273C12.4209 15.5878 12.8244 15.1059 13.2237 14.5838ZM18.5613 6.2226C21.3837 7.03171 23.2275 8.3767 23.2275 10.0002C23.2275 11.6238 21.3847 12.9687 18.5624 13.7779C19.2719 16.6267 19.0283 18.8952 17.623 19.7064C16.2176 20.5187 14.1313 19.5952 12.0185 17.5555C9.90673 19.5942 7.8204 20.5187 6.41504 19.7064C5.00862 18.8952 4.7661 16.6267 5.47566 13.7779C2.65329 12.9687 0.810547 11.6238 0.810547 10.0002C0.810547 8.3767 2.65329 7.03171 5.47566 6.2226C4.7661 3.37375 5.00968 1.10526 6.41504 0.292972C7.8204 -0.51826 9.90673 0.405232 12.0185 2.44496C14.1313 0.405232 16.2176 -0.51826 17.623 0.292972C19.0283 1.10526 19.2719 3.37375 18.5624 6.2226M17.5319 5.95995C18.1356 3.5665 18.0085 1.73858 17.0945 1.21011C16.1805 0.682703 14.5337 1.48758 12.763 3.20642C13.4276 3.93422 14.0452 4.70359 14.6121 5.50985C15.6478 5.60517 16.6285 5.75767 17.5319 5.95995ZM6.50718 14.0405C5.90458 16.434 6.03061 18.2619 6.94563 18.7893C7.85959 19.3167 9.50641 18.5129 11.2771 16.794C10.6123 16.066 9.99472 15.2963 9.42804 14.4895C8.44619 14.4018 7.47094 14.2514 6.50824 14.0394M10.8165 5.41666C11.6192 5.38343 12.423 5.38343 13.2258 5.41666C12.8443 4.91938 12.4415 4.43883 12.0185 3.97635C11.616 4.41691 11.2136 4.89984 10.8143 5.42089M9.42698 5.51303C9.9937 4.70665 10.6113 3.93727 11.2761 3.2096C9.50535 1.4897 7.85853 0.684821 6.94563 1.21223C6.03167 1.74069 5.90458 3.56967 6.50824 5.96207C7.41161 5.76085 8.39229 5.60835 9.42804 5.51197M14.0243 13.476C14.7785 12.3697 15.449 11.2086 16.0302 10.0023C15.4494 8.79611 14.7793 7.63498 14.0254 6.52866C12.6904 6.42874 11.3498 6.42874 10.0148 6.52866C9.26015 7.63492 8.58931 8.79605 8.00785 10.0023C8.58905 11.2086 9.25953 12.3697 10.0137 13.476C11.3487 13.5758 12.6893 13.5758 14.0243 13.476ZM15.3852 13.3362C16.0365 13.2515 16.6561 13.1435 17.2385 13.0153C17.0481 12.4178 16.8318 11.8288 16.5904 11.2499C16.2179 11.9616 15.8162 12.6577 15.3863 13.3362M8.65387 6.6674C8.00256 6.75212 7.38301 6.8612 6.80054 6.98935C6.98058 7.557 7.19768 8.14795 7.44973 8.75478C7.82219 8.04304 8.22391 7.34701 8.65387 6.66846M6.80054 13.0164C7.38301 13.1445 8.00256 13.2526 8.65387 13.3373C8.22392 12.6587 7.8222 11.9627 7.44973 11.251C7.20794 11.8298 6.99134 12.4188 6.80054 13.0164ZM5.76478 12.7569C6.04226 11.8737 6.40021 10.9481 6.83443 10.0034C6.41968 9.10925 6.06241 8.18953 5.76478 7.24987C3.39145 7.92343 1.87066 8.94859 1.87066 10.0034C1.87066 11.0582 3.39145 12.0823 5.76478 12.7569ZM17.2396 6.98935C16.6268 6.85528 16.0084 6.74786 15.3863 6.6674C15.8162 7.34596 16.2179 8.042 16.5904 8.75373C16.8425 8.14795 17.0585 7.557 17.2396 6.98935ZM18.2743 7.24882C17.9989 8.13206 17.6389 9.05767 17.2046 10.0023C17.6389 10.947 17.9989 11.8726 18.2743 12.7559C20.6487 12.0813 22.1695 11.0572 22.1695 10.0023C22.1695 8.94753 20.6487 7.92343 18.2743 7.24882ZM12.0185 11.9923C11.7517 12.001 11.4859 11.956 11.2368 11.8599C10.9878 11.7638 10.7606 11.6186 10.5688 11.433C10.377 11.2473 10.2245 11.025 10.1204 10.7792C10.0162 10.5335 9.96253 10.2693 9.96253 10.0023C9.96253 9.73542 10.0162 9.47121 10.1204 9.22544C10.2245 8.97967 10.377 8.75736 10.5688 8.57171C10.7606 8.38607 10.9878 8.24089 11.2368 8.1448C11.4859 8.04872 11.7517 8.00369 12.0185 8.01239C12.535 8.02925 13.0247 8.24628 13.3842 8.61763C13.7436 8.98898 13.9446 9.48554 13.9446 10.0023C13.9446 10.5192 13.7436 11.0157 13.3842 11.3871C13.0247 11.7584 12.535 11.9754 12.0185 11.9923Z" fill="#61DAFB"/>
</svg>
