<svg width="28" height="26" viewBox="0 0 28 26" fill="none" xmlns="http://www.w3.org/2000/svg">
<path d="M24.5756 26H3.4242C2.72299 26 2.05049 25.7214 1.55466 25.2256C1.05883 24.7298 0.780273 24.0573 0.780273 23.3561V8.87926C0.802249 8.44227 0.930685 8.01728 1.1544 7.64127C1.37812 7.26526 1.69035 6.94961 2.0639 6.72181L12.6396 0.376389C13.0504 0.130095 13.5203 0 13.9992 0C14.4782 0 14.9481 0.130095 15.3589 0.376389L25.9346 6.72181C26.7291 7.20168 27.2169 8.06096 27.2195 8.98898V23.3561C27.2195 24.0573 26.941 24.7298 26.4451 25.2256C25.9493 25.7214 25.2768 26 24.5756 26ZM3.4242 9.96194V23.3561H24.5756V9.96194L13.9999 17.012L3.4242 9.96194ZM13.9999 2.64356L5.1639 7.94463L13.9999 13.8353L22.8346 7.94463L13.9999 2.64356Z" fill="#F0EDE6"/>
</svg>
