<svg width="26" height="26" viewBox="0 0 26 26" fill="none" xmlns="http://www.w3.org/2000/svg">
<path d="M7.18714 0.428364C8.16242 0.758745 9.09024 1.21545 9.9469 1.78682C11.1568 1.4776 12.4008 1.32226 13.6495 1.32447C14.9391 1.32447 16.1833 1.48552 17.3496 1.78552C18.2059 1.2147 19.1333 0.758442 20.108 0.428364C21.0132 0.120569 22.3028 -0.378136 23.0691 0.469922C23.5886 1.04655 23.7184 2.01279 23.8106 2.75046C23.9145 3.57384 23.9392 4.64658 23.6665 5.71152C24.7094 7.05829 25.3379 8.66479 25.3379 10.4155C25.3379 13.0674 23.9016 15.37 21.7756 16.9649C20.7524 17.7227 19.6176 18.3168 18.4119 18.7259C18.6898 19.3623 18.8444 20.0662 18.8444 20.8052V24.7013C18.8444 25.0457 18.7075 25.3761 18.464 25.6196C18.2204 25.8632 17.8901 26 17.5457 26H9.75339C9.40895 26 9.07862 25.8632 8.83506 25.6196C8.59151 25.3761 8.45468 25.0457 8.45468 24.7013V23.4143C7.21441 23.5662 6.17414 23.4311 5.28972 23.0558C4.36504 22.6636 3.72087 22.0558 3.23645 21.474C2.77671 20.9233 2.27541 19.6818 1.55073 19.4402C1.38887 19.3863 1.23922 19.3011 1.11032 19.1893C0.98141 19.0776 0.875772 18.9416 0.799434 18.789C0.645263 18.4809 0.619799 18.1242 0.728642 17.7973C0.837485 17.4705 1.07172 17.2002 1.37982 17.046C1.68792 16.8919 2.04464 16.8664 2.37151 16.9753C3.23645 17.2636 3.8001 17.8869 4.18581 18.3883C4.80919 19.1935 5.31569 20.2454 6.30271 20.6649C6.70921 20.8376 7.30532 20.9506 8.23779 20.8233L8.45468 20.7792C8.45716 20.0724 8.60434 19.3736 8.88715 18.7259C7.68141 18.3168 6.54662 17.7227 5.52349 16.9649C3.39749 15.37 1.96112 13.0687 1.96112 10.4155C1.96112 8.66739 2.5884 7.06218 3.62867 5.71672C3.35594 4.65177 3.37931 3.57644 3.48321 2.75176L3.4897 2.70241C3.58451 1.94656 3.6949 1.05694 4.22477 0.469922C4.99101 -0.378136 6.28193 0.121868 7.18584 0.429662L7.18714 0.428364Z" fill="#F0EDE6"/>
</svg>
