<svg width="25" height="25" viewBox="0 0 25 25" fill="none" xmlns="http://www.w3.org/2000/svg">
<path d="M12.5 0.5C5.88317 0.5 0.5 5.88317 0.5 12.5C0.5 19.1167 5.88317 24.5 12.5 24.5C19.1167 24.5 24.5 19.1167 24.5 12.5C24.5 5.88317 19.1167 0.5 12.5 0.5ZM22.3017 16.9136C22.2288 16.922 22.1557 16.9425 22.0869 16.9786C22.0591 16.9933 21.2049 17.4292 19.7657 17.9037C20.1592 16.2353 20.3315 14.6306 20.359 13.1233H23.2339C23.1564 14.4675 22.8302 15.7453 22.3017 16.9136ZM16.8773 22.3181C15.7203 22.8361 14.4566 23.1564 13.1282 23.2337V20.3877C14.9198 20.3264 16.5413 20.0693 17.9194 19.7458C17.6471 20.5302 17.3251 21.3222 16.9342 22.1179C16.9026 22.183 16.8857 22.2507 16.8773 22.3181ZM8.02609 22.1033C8.01179 22.0753 7.57908 21.2276 7.10654 19.7984C8.77192 20.1924 10.3762 20.3692 11.8814 20.3975V23.2344C10.5361 23.1576 9.25758 22.8315 8.08839 22.303C8.07843 22.2348 8.05974 22.1673 8.02609 22.1033ZM2.69838 16.9142C2.16999 15.7459 1.84336 14.4675 1.76637 13.1233H4.61707C4.6772 14.9327 4.93775 16.5662 5.26483 17.9536C4.4824 17.6819 3.69297 17.3607 2.89874 16.9711C2.83361 16.9391 2.7663 16.9221 2.69838 16.9142ZM2.67774 8.13133C2.75801 8.12482 2.838 8.10213 2.91382 8.06252C2.94124 8.04773 3.78119 7.61952 5.19769 7.14954C4.81037 8.79806 4.63893 10.3848 4.60967 11.8763H1.76609C1.84247 10.5498 2.16165 9.2874 2.67774 8.13133ZM8.09362 2.69488C9.2612 2.16816 10.5383 1.84247 11.8814 1.76604V4.6539C10.0678 4.7152 8.43088 4.97775 7.04241 5.30622C7.31608 4.51545 7.63994 3.71733 8.03376 2.91499C8.06881 2.8439 8.08711 2.76914 8.09362 2.69488ZM16.9423 2.92989C16.9566 2.95759 17.389 3.80516 17.8614 5.23363C16.2103 4.84614 14.6216 4.67509 13.1282 4.64628V1.76665C14.4547 1.84364 15.7167 2.16309 16.8727 2.67997C16.8783 2.76474 16.9002 2.84985 16.9423 2.92989ZM13.1282 5.92333C14.7471 5.95148 16.4826 6.15835 18.2778 6.63773C18.6586 8.07715 18.991 9.86435 19.0686 11.8766H13.1282V5.92333ZM11.8814 5.93523V11.8766H5.88728C5.91621 10.259 6.12375 8.52505 6.60346 6.73129C8.05106 6.3472 9.85222 6.01189 11.8814 5.93523ZM5.89869 13.1233H11.8814V19.1173C10.2498 19.0899 8.50046 18.8816 6.69007 18.3949C6.30737 16.9477 5.97389 15.1491 5.89869 13.1233ZM13.1282 19.1052V13.1233H19.0813C19.0546 14.7561 18.8463 16.5069 18.3603 18.3192C16.921 18.699 15.1367 19.0291 13.1282 19.1052ZM20.3507 11.8766C20.2886 10.0788 20.028 8.45552 19.7029 7.076C20.4961 7.35024 21.2973 7.67503 22.1027 8.07031C22.1733 8.10485 22.2469 8.12115 22.3209 8.12799C22.8381 9.28528 23.1577 10.5486 23.2344 11.8766H20.3507ZM21.3155 6.35315C20.6441 6.0748 19.9783 5.83644 19.3195 5.63346C19.0863 4.8556 18.8487 4.2001 18.641 3.67995C19.6819 4.40703 20.588 5.31273 21.3155 6.35315ZM6.31115 3.71444C6.03636 4.37922 5.79995 5.03849 5.59887 5.69081C4.83841 5.91938 4.19504 6.15206 3.68212 6.35665C4.39852 5.33114 5.2892 4.43629 6.31115 3.71444ZM3.73101 18.7124C4.37616 18.9782 5.01641 19.2073 5.64976 19.4034C5.87037 20.1407 6.0961 20.769 6.29591 21.2747C5.30355 20.571 4.43568 19.7041 3.73101 18.7124ZM18.6626 21.304C18.9323 20.6508 19.1647 20.003 19.3633 19.362C20.1175 19.1364 20.762 18.9055 21.2763 18.7021C20.5608 19.7121 19.6761 20.5929 18.6626 21.304Z" fill="#066FD5"/>
</svg>
