<svg width="160" height="32" viewBox="0 0 160 32" fill="none" xmlns="http://www.w3.org/2000/svg">
<path d="M16 0C7.17756 0 0 7.17756 0 16C0 24.8222 7.17756 32 16 32C24.8222 32 32 24.8223 32 16C32 7.17756 24.8222 0 16 0ZM29.069 21.8847C28.9717 21.896 28.8742 21.9233 28.7825 21.9715C28.7455 21.9911 27.6065 22.5723 25.6876 23.2049C26.2123 20.9804 26.442 18.8408 26.4786 16.8311H30.3118C30.2086 18.6234 29.7736 20.3271 29.069 21.8847ZM21.8365 29.0909C20.2938 29.7815 18.6088 30.2085 16.8376 30.3116V26.5169C19.2264 26.4351 21.3883 26.0924 23.2258 25.6611C22.8629 26.707 22.4334 27.763 21.9123 28.8239C21.8701 28.9107 21.8476 29.001 21.8365 29.0909ZM10.0348 28.8043C10.0157 28.7671 9.43877 27.6368 8.80872 25.7312C11.0292 26.2565 13.1683 26.4922 15.1752 26.53V30.3125C13.3815 30.2102 11.6768 29.7753 10.1179 29.0706C10.1046 28.9797 10.0797 28.8898 10.0348 28.8043ZM2.93117 21.8856C2.22666 20.3279 1.79114 18.6234 1.6885 16.8311H5.48943C5.56961 19.2436 5.91701 21.4216 6.35311 23.2715C5.30987 22.9091 4.25729 22.4809 3.19832 21.9614C3.11147 21.9188 3.02173 21.8961 2.93117 21.8856ZM2.90366 10.1751C3.01068 10.1664 3.11733 10.1362 3.21842 10.0834C3.25499 10.0636 4.37492 9.49269 6.26359 8.86605C5.74716 11.0641 5.51858 13.1798 5.47957 15.1684H1.68813C1.78996 13.3997 2.21553 11.7165 2.90366 10.1751ZM10.1248 2.9265C11.6816 2.22421 13.3843 1.78996 15.1752 1.68805V5.53853C12.757 5.62026 10.5745 5.97033 8.72321 6.40829C9.08811 5.35393 9.51991 4.28977 10.045 3.21998C10.0917 3.12519 10.1161 3.02551 10.1248 2.9265ZM21.923 3.23986C21.9421 3.27679 22.5187 4.40688 23.1485 6.3115C20.9471 5.79485 18.8287 5.56679 16.8376 5.52837V1.68887C18.6062 1.79152 20.2889 2.21746 21.8302 2.90662C21.8378 3.01965 21.8669 3.13313 21.923 3.23986ZM16.8376 7.23111C18.9961 7.26863 21.3101 7.54446 23.7037 8.18364C24.2114 10.1029 24.6546 12.4858 24.7581 15.1688H16.8376V7.23111ZM15.1752 7.24698V15.1688H7.18304C7.22161 13.0119 7.49833 10.7001 8.13795 8.30839C10.0681 7.79626 12.4696 7.34918 15.1752 7.24698ZM7.19825 16.8311H15.1752V24.8231C12.9998 24.7865 10.6673 24.5089 8.25343 23.8599C7.74316 21.9302 7.29852 19.5321 7.19825 16.8311ZM16.8376 24.8069V16.8311H24.7751C24.7394 19.0082 24.4618 21.3426 23.8137 23.759C21.8947 24.2654 19.5155 24.7054 16.8376 24.8069ZM26.4676 15.1688C26.3848 12.7717 26.0374 10.6074 25.6039 8.768C26.6615 9.13365 27.7297 9.56671 28.8036 10.0937C28.8978 10.1398 28.9959 10.1615 29.0946 10.1707C29.7841 11.7137 30.2103 13.3981 30.3125 15.1688H26.4676ZM27.7541 7.8042C26.8589 7.43306 25.971 7.11526 25.0927 6.84462C24.7817 5.80746 24.4649 4.93347 24.1879 4.23993C25.5758 5.20937 26.784 6.41697 27.7541 7.8042ZM7.7482 4.28592C7.38181 5.17229 7.0666 6.05132 6.79849 6.92109C5.78454 7.22584 4.92672 7.53608 4.24282 7.80887C5.19803 6.44152 6.3856 5.24839 7.7482 4.28592ZM4.30802 24.2832C5.16821 24.6375 6.02188 24.943 6.86635 25.2045C7.1605 26.1876 7.46147 27.0253 7.72788 27.6996C6.40473 26.7613 5.24757 25.6055 4.30802 24.2832ZM24.2169 27.7386C24.5764 26.8677 24.8863 26.004 25.151 25.1494C26.1567 24.8485 27.016 24.5406 27.7018 24.2695C26.7477 25.6162 25.5682 26.7906 24.2169 27.7386Z" fill="#066FD5"/>
<path d="M53.7164 24.2496C52.7319 24.2496 51.8375 24.0624 51.0332 23.688C50.229 23.3136 49.5495 22.8144 48.9948 22.1904C48.4402 21.5525 48.045 20.8523 47.8092 20.0896L49.3068 19.528C49.6674 20.5819 50.229 21.3861 50.9916 21.9408C51.7543 22.4816 52.6626 22.752 53.7164 22.752C54.382 22.752 54.9644 22.648 55.4636 22.44C55.9767 22.2181 56.3719 21.9131 56.6492 21.5248C56.9266 21.1365 57.0652 20.6859 57.0652 20.1728C57.0652 19.4101 56.8572 18.8208 56.4412 18.4048C56.0252 17.9888 55.429 17.6699 54.6524 17.448L51.8652 16.616C50.7698 16.2971 49.9239 15.7632 49.3276 15.0144C48.7452 14.2656 48.454 13.4128 48.454 12.456C48.454 11.6379 48.6551 10.9168 49.0572 10.2928C49.4594 9.65493 50.0071 9.15573 50.7004 8.7952C51.4076 8.43467 52.205 8.2544 53.0924 8.2544C54.0215 8.2544 54.8535 8.42773 55.5884 8.7744C56.3372 9.1072 56.9682 9.55093 57.4812 10.1056C57.9943 10.6603 58.3618 11.2773 58.5836 11.9568L57.1276 12.5392C56.7948 11.624 56.2748 10.9307 55.5676 10.4592C54.8743 9.98773 54.0562 9.752 53.1132 9.752C52.517 9.752 51.99 9.856 51.5324 10.064C51.0887 10.272 50.742 10.5701 50.4924 10.9584C50.2428 11.3467 50.118 11.8043 50.118 12.3312C50.118 12.9691 50.3191 13.5445 50.7212 14.0576C51.1234 14.5568 51.7404 14.9312 52.5724 15.1808L55.0268 15.9088C56.2471 16.2693 57.1692 16.7893 57.7932 17.4688C58.4172 18.1483 58.7292 19.0011 58.7292 20.0272C58.7292 20.8592 58.5143 21.5941 58.0844 22.232C57.6684 22.856 57.0791 23.3483 56.3164 23.7088C55.5676 24.0693 54.701 24.2496 53.7164 24.2496ZM60.3409 24L65.9985 8.504H67.7873L73.4449 24H71.6977L70.3665 20.2144H63.4401L62.0881 24H60.3409ZM63.9809 18.6544H69.7841L66.6433 9.752H67.1425L63.9809 18.6544ZM75.5113 24V8.504H77.1753V22.44H84.0393V24H75.5113ZM86.5613 24V8.504H96.5453V10.064H88.2253V15.4512H96.1293V17.0112H88.2253V22.44H96.5453V24H86.5613ZM104.518 24.2496C103.533 24.2496 102.639 24.0624 101.835 23.688C101.031 23.3136 100.351 22.8144 99.7964 22.1904C99.2417 21.5525 98.8465 20.8523 98.6108 20.0896L100.108 19.528C100.469 20.5819 101.031 21.3861 101.793 21.9408C102.556 22.4816 103.464 22.752 104.518 22.752C105.184 22.752 105.766 22.648 106.265 22.44C106.778 22.2181 107.173 21.9131 107.451 21.5248C107.728 21.1365 107.867 20.6859 107.867 20.1728C107.867 19.4101 107.659 18.8208 107.243 18.4048C106.827 17.9888 106.231 17.6699 105.454 17.448L102.667 16.616C101.571 16.2971 100.725 15.7632 100.129 15.0144C99.5468 14.2656 99.2556 13.4128 99.2556 12.456C99.2556 11.6379 99.4567 10.9168 99.8588 10.2928C100.261 9.65493 100.809 9.15573 101.502 8.7952C102.209 8.43467 103.007 8.2544 103.894 8.2544C104.823 8.2544 105.655 8.42773 106.39 8.7744C107.139 9.1072 107.77 9.55093 108.283 10.1056C108.796 10.6603 109.163 11.2773 109.385 11.9568L107.929 12.5392C107.596 11.624 107.076 10.9307 106.369 10.4592C105.676 9.98773 104.858 9.752 103.915 9.752C103.319 9.752 102.792 9.856 102.334 10.064C101.89 10.272 101.544 10.5701 101.294 10.9584C101.044 11.3467 100.92 11.8043 100.92 12.3312C100.92 12.9691 101.121 13.5445 101.523 14.0576C101.925 14.5568 102.542 14.9312 103.374 15.1808L105.828 15.9088C107.049 16.2693 107.971 16.7893 108.595 17.4688C109.219 18.1483 109.531 19.0011 109.531 20.0272C109.531 20.8592 109.316 21.5941 108.886 22.232C108.47 22.856 107.881 23.3483 107.118 23.7088C106.369 24.0693 105.503 24.2496 104.518 24.2496ZM113.056 24V21.712H114.72V24H113.056ZM118.363 24V8.504H123.417C125.054 8.504 126.475 8.8368 127.681 9.5024C128.902 10.1541 129.844 11.0624 130.51 12.2272C131.176 13.3781 131.508 14.7163 131.508 16.2416C131.508 17.7531 131.176 19.0981 130.51 20.2768C129.844 21.4416 128.902 22.3568 127.681 23.0224C126.475 23.6741 125.054 24 123.417 24H118.363ZM121.192 21.504H123.48C124.534 21.504 125.442 21.2891 126.204 20.8592C126.981 20.4155 127.584 19.8053 128.014 19.0288C128.444 18.2384 128.659 17.3093 128.659 16.2416C128.659 15.16 128.444 14.2309 128.014 13.4544C127.584 12.6779 126.981 12.0747 126.204 11.6448C125.442 11.2149 124.534 11 123.48 11H121.192V21.504ZM133.76 24V8.504H144.056V11H136.589V14.9728H143.64V17.4688H136.589V21.504H144.056V24H133.76ZM150.269 24L144.861 8.504H147.94L152.183 21.3376H151.58L155.823 8.504H158.901L153.514 24H150.269Z" fill="#F0EDE6"/>
</svg>
