<svg width="40" height="22" viewBox="0 0 40 22" fill="none" xmlns="http://www.w3.org/2000/svg">
<path d="M0.880462 21.1587C1.44439 21.6974 2.20914 22 3.00654 22C3.80393 22 4.56868 21.6974 5.13261 21.1587L20.0182 6.93565L34.9037 21.1587C35.4709 21.6821 36.2305 21.9717 37.019 21.9652C37.8074 21.9586 38.5617 21.6565 39.1192 21.1237C39.6768 20.591 39.993 19.8703 39.9999 19.1169C40.0067 18.3635 39.7036 17.6377 39.1558 17.0958L22.1442 0.841277C21.5803 0.302608 20.8156 0 20.0182 0C19.2208 0 18.456 0.302608 17.8921 0.841277L0.880462 17.0958C0.316702 17.6346 0 18.3654 0 19.1273C0 19.8892 0.316702 20.6199 0.880462 21.1587Z" fill="#F0EDE6"/>
</svg>
